<?xml version="1.0" standalone="no"?>
<!DOCTYPE svg PUBLIC "-//W3C//DTD SVG 20010904//EN"
 "http://www.w3.org/TR/2001/REC-SVG-20010904/DTD/svg10.dtd">
<svg version="1.0" xmlns="http://www.w3.org/2000/svg"
 width="512.000000pt" height="512.000000pt" viewBox="0 0 512.000000 512.000000"
 preserveAspectRatio="xMidYMid meet">

<g transform="translate(0.000000,512.000000) scale(0.100000,-0.100000)"
fill="#000000" stroke="none">
<path d="M2000 4909 c0 -6 54 -310 121 -676 66 -366 118 -667 116 -670 -3 -2
-145 47 -317 110 l-313 113 -179 385 -179 384 -270 98 c-149 54 -273 97 -275
95 -4 -5 55 -1908 60 -1923 2 -6 164 -69 360 -140 196 -71 356 -132 356 -135
0 -3 -210 -143 -466 -310 l-465 -303 447 -163 448 -164 682 231 682 231 774
-282 773 -282 83 -1 c75 0 88 3 157 37 83 41 130 89 173 176 26 52 27 62 26
195 -1 117 -6 156 -27 239 -64 241 -218 459 -421 598 -91 63 -217 117 -536
233 -162 58 -300 112 -306 118 -6 7 -150 343 -319 747 -170 404 -313 740 -319
747 -9 10 -283 113 -758 284 -60 21 -108 34 -108 28z m612 -532 c32 -14 41
-34 267 -571 128 -307 231 -559 229 -561 -3 -3 -525 182 -536 190 -4 3 -182
987 -182 1007 0 15 12 13 94 -17 52 -19 109 -40 128 -48z m-1404 -444 l180
-387 1324 -481 c727 -265 1343 -492 1368 -505 177 -90 318 -249 378 -425 30
-88 44 -172 40 -239 -3 -50 -7 -62 -30 -79 l-27 -20 -573 208 c-315 114 -579
211 -587 215 -9 5 72 36 207 81 122 40 218 77 214 81 -4 3 -362 135 -795 293
l-788 286 -154 -100 c-84 -56 -157 -101 -162 -101 -8 0 -656 234 -724 261
l-25 10 -17 607 c-10 334 -20 624 -22 645 -3 20 -1 37 3 37 5 0 90 -174 190
-387z m1276 -1423 c174 -63 316 -117 316 -120 0 -3 -305 -108 -677 -233 l-676
-229 -114 42 c-63 23 -112 45 -109 47 14 14 932 611 937 610 4 -1 149 -54 323
-117z"/>
<path d="M0 350 l0 -150 2560 0 2560 0 0 150 0 150 -2560 0 -2560 0 0 -150z"/>
</g>
</svg>
