<?xml version="1.0" standalone="no"?>
<!DOCTYPE svg PUBLIC "-//W3C//DTD SVG 20010904//EN"
 "http://www.w3.org/TR/2001/REC-SVG-20010904/DTD/svg10.dtd">
<svg version="1.0" xmlns="http://www.w3.org/2000/svg"
 width="512.000000pt" height="512.000000pt" viewBox="0 0 512.000000 512.000000"
 preserveAspectRatio="xMidYMid meet">

<g transform="translate(0.000000,512.000000) scale(0.100000,-0.100000)"
fill="#000000" stroke="none">
<path d="M1375 4724 c-170 -63 -361 -132 -422 -155 l-113 -41 541 -450 c297
-247 539 -451 537 -453 -1 -1 -135 -51 -296 -110 l-294 -107 -389 179 -390
180 -275 -100 -275 -100 34 -36 c19 -20 305 -337 637 -706 331 -368 610 -678
619 -687 15 -16 36 -10 346 111 182 71 331 126 332 122 2 -3 -69 -242 -156
-531 -88 -288 -159 -525 -158 -526 1 -1 202 72 447 161 l445 162 375 615 374
615 791 278 c434 153 812 289 838 302 66 33 119 89 158 168 30 61 33 77 33
154 1 76 -3 94 -30 151 -61 129 -227 277 -408 365 -154 75 -238 96 -416 102
-209 8 -257 -4 -694 -163 -203 -74 -372 -134 -377 -134 -4 0 -336 169 -738
375 -401 206 -738 375 -748 374 -10 -1 -157 -52 -328 -115z m861 -485 c302
-155 552 -285 556 -288 4 -3 -115 -51 -264 -105 -233 -85 -274 -97 -291 -87
-33 21 -799 662 -795 666 2 2 57 24 123 49 66 24 121 45 121 45 1 1 248 -126
550 -280z m2126 -160 c110 -22 218 -71 308 -139 66 -49 150 -144 150 -170 0
-45 -30 -58 -648 -276 -338 -119 -615 -214 -618 -211 -2 2 49 91 114 198 66
107 116 195 112 197 -8 3 -1571 -565 -1581 -575 -5 -5 -32 -87 -61 -183 l-53
-175 -340 -132 c-187 -73 -346 -132 -352 -130 -17 3 -873 951 -862 955 4 2
180 -76 390 -172 210 -97 388 -176 395 -176 8 0 611 218 1342 483 730 266
1347 489 1372 495 75 19 82 20 182 21 53 0 121 -4 150 -10z m-1281 -986 c-6
-10 -173 -286 -373 -613 l-363 -595 -114 -43 c-63 -23 -115 -41 -116 -40 -1 2
71 244 160 538 l162 534 319 118 c176 64 323 117 327 117 4 1 3 -7 -2 -16z"/>
<path d="M4 567 c-2 -7 -3 -76 -2 -152 l3 -140 2558 -3 2557 -2 0 155 0 155
-2555 0 c-2086 0 -2557 -2 -2561 -13z"/>
</g>
</svg>
